# xmcd
# Track frame offsets:
# 150
# 12227
# 25158
# 37581
# 47104
# 55932
# 62923
# 72020
# 84751
# 98468
# 110103
#
# Disc length: 1656 seconds
# Revision: 0
# Processed by: cddbd v1.4PL0 Copyright (c) Steve Scherf et al.
# Submitted via: VisiTrax 2.9.7.197 - For more info visit www.synapsa.com
#
DISCID=7e06760b
DTITLE=The LeFevres - The LeFevres Volume 2
DYEAR=1900
DGENRE=Southern Gospel
TTITLE0=One Day at a Time
TTITLE1=The Next Step You Take
TTITLE2=Farther Along
TTITLE3=It's a Grand and Glorious Feeling
TTITLE4=Land Where Living Waters Flow
TTITLE5=Scatter Sunshine
TTITLE6=I Want to Know More
TTITLE7=I've Got a Longing
TTITLE8=The Lord Will Make a Way
TTITLE9=Till the Storm Passes By
TTITLE10=How Beautiful Heaven Must Be
EXTD=
EXTT0=
EXTT1=
EXTT2=
EXTT3=
EXTT4=
EXTT5=Solo by Eva Mae LeFevere
EXTT6=
EXTT7=
EXTT8=
EXTT9=
EXTT10=
PLAYORDER=
